<svg xmlns="http://www.w3.org/2000/svg" viewBox="0 0 400 180" role="img" aria-label="Social Engineering Quiz">
  <defs>
    <linearGradient id="g5" x1="0" x2="1" y1="0" y2="1">
      <stop offset="0%" stop-color="#ff8f3e"/>
      <stop offset="100%" stop-color="#e6573c"/>
    </linearGradient>
  </defs>
  <rect width="400" height="180" rx="16" fill="url(#g5)"/>
  <circle cx="112" cy="78" r="30" fill="#fff2e8"/>
  <circle cx="112" cy="70" r="10" fill="#d15b22"/>
  <rect x="90" y="84" width="44" height="28" rx="14" fill="#d15b22"/>
  <circle cx="208" cy="84" r="30" fill="#fff2e8"/>
  <circle cx="208" cy="76" r="10" fill="#d15b22"/>
  <rect x="186" y="90" width="44" height="28" rx="14" fill="#d15b22"/>
  <path d="M262 56h88a10 10 0 0 1 10 10v36a10 10 0 0 1-10 10h-56l-16 14 4-14h-20a10 10 0 0 1-10-10V66a10 10 0 0 1 10-10z" fill="#fff2e8"/>
  <text x="278" y="86" font-family="Manrope, sans-serif" font-size="24" fill="#d15b22" font-weight="800">?</text>
  <text x="24" y="168" font-family="Manrope, sans-serif" font-size="16" fill="#ffffff" font-weight="700">Social Engineering Quiz</text>
</svg>
